# xmcd
#
# Track frame offsets:
#	150
#	18408
#	35281
#	49147
#	61014
#	70605
#	88748
#	106152
#	120480
#	135929
#	155688
#
# Disc length: 2294 seconds
#
# Revision: 0
# Processed by: cddbd v1.5.1PL2 Copyright (c) Steve Scherf et al.
# Submitted via: EasyCDDAExtractor 8.2.1.1
#
DISCID=8108f40b
DTITLE=Clinic - Walking With Thee
DYEAR=1900
DGENRE=Electronic
TTITLE0=Harmony
TTITLE1=The Equaliser
TTITLE2=Welcome
TTITLE3=Walking With Thee
TTITLE4=Pet Eunoch
TTITLE5=Mr. Moonlight
TTITLE6=Come into our Room
TTITLE7=The Vulture
TTITLE8=The Brigde
TTITLE9=Sunlight Bathes our Home
TTITLE10=For the Wars
EXTD=
EXTT0=
EXTT1=
EXTT2=
EXTT3=
EXTT4=
EXTT5=
EXTT6=
EXTT7=
EXTT8=
EXTT9=
EXTT10=
PLAYORDER=
